# xmcd
# 
# Track frame offsets:
#     150
#     15865
#     34615
#     54942
#     74972
#     92790
#     115452
#     132647
#     152670
#     171257
#     191920
#     211502
# 
# Disc length: 3010
# 
# Revision: 1
# Processed by: cddbd v1.5.2PL0 Copyright (c) Steve Scherf et al.
# Submitted via: fre:ac v1.0.31
# 
DISCID=a60bc00c
DTITLE=Paul Carrack - Satisfy my soul
DYEAR=2000
DGENRE=Soul
TTITLE0=Satisfy my soul
TTITLE1=Together
TTITLE2=Where would I be
TTITLE3=My kind
TTITLE4=Inspire me
TTITLE5=The only one
TTITLE6=How wonderful
TTITLE7=Rumming out of time
TTITLE8=Better than nothing
TTITLE9=Time passes
TTITLE10=Make your mind up
TTITLE11=Bring it on home to me
EXTD=
EXTT0=
EXTT1=
EXTT2=
EXTT3=
EXTT4=
EXTT5=
EXTT6=
EXTT7=
EXTT8=
EXTT9=
EXTT10=
EXTT11=
PLAYORDER=
